<svg width="64" height="64" viewBox="0 0 64 64" xmlns="http://www.w3.org/2000/svg">
  <defs>
    <linearGradient id="grad64" x1="10%" y1="0%" x2="90%" y2="100%">
      <stop offset="0%" stop-color="#55C6F7"/>
      <stop offset="50%" stop-color="#5F6AFD"/>
      <stop offset="100%" stop-color="#8D4FFF"/>
    </linearGradient>
  </defs>
  <rect width="64" height="64" rx="14" fill="url(#grad64)"/>
  <path d="M32 11c-5.5 0-11.1 1.2-15.7 3.7-2.2 1.1-3.6 3.4-3.6 5.8v11.3c0 10.1 7.5 20.3 19.3 26.9 11.8-6.6 19.3-16.8 19.3-26.9V20.5c0-2.4-1.4-4.7-3.6-5.8C43.1 12.2 37.5 11 32 11Z" fill="#F2F6FF" fill-opacity="0.92"/>
  <path d="M21.5 28.7h21a1.5 1.5 0 0 0 0-3h-21a1.5 1.5 0 0 0 0 3Zm0 10h14a1.5 1.5 0 0 0 0-3h-14a1.5 1.5 0 0 0 0 3Zm0 10h8a1.5 1.5 0 0 0 0-3h-8a1.5 1.5 0 0 0 0 3Z" fill="#4C33FF"/>
</svg>

